<mxfile host="app.diagrams.net" modified="2022-12-05T17:49:34.329Z" agent="5.0 (X11)" etag="-CyWQd1ea_yKzmdJ0BfK" version="20.6.0" type="github">
  <diagram id="6z3mwKdBegchAqY9IlfU" name="PÃ¡gina-1">
    <mxGraphModel dx="8374" dy="1333" grid="1" gridSize="10" guides="1" tooltips="1" connect="1" arrows="1" fold="1" page="1" pageScale="1" pageWidth="827" pageHeight="1169" math="0" shadow="0">
      <root>
        <mxCell id="0" />
        <mxCell id="1" parent="0" />
        <mxCell id="i_zrRiR0qKMfP-qaaSCy-72" value="" style="rounded=0;whiteSpace=wrap;html=1;labelBackgroundColor=#000000;labelBorderColor=default;fontSize=39;strokeWidth=5;fillColor=#dae8fc;strokeColor=#6c8ebf;" parent="1" vertex="1">
          <mxGeometry x="-5215" y="80" width="1070" height="2770" as="geometry" />
        </mxCell>
        <mxCell id="i_zrRiR0qKMfP-qaaSCy-73" value="" style="verticalLabelPosition=bottom;html=1;verticalAlign=top;align=center;shape=mxgraph.floorplan.room;fillColor=#000000;strokeWidth=3;" parent="1" vertex="1">
          <mxGeometry x="-5220" y="60" width="1090" height="2790" as="geometry" />
        </mxCell>
        <mxCell id="i_zrRiR0qKMfP-qaaSCy-74" value="" style="verticalLabelPosition=bottom;html=1;verticalAlign=top;align=center;shape=mxgraph.floorplan.wall;fillColor=#000000;strokeWidth=3;" parent="1" vertex="1">
          <mxGeometry x="-5210" y="1011" width="1060" height="10" as="geometry" />
        </mxCell>
        <mxCell id="i_zrRiR0qKMfP-qaaSCy-75" value="" style="verticalLabelPosition=bottom;html=1;verticalAlign=top;align=center;shape=mxgraph.floorplan.wall;fillColor=#000000;strokeWidth=3;" parent="1" vertex="1">
          <mxGeometry x="-5210" y="1962" width="1060" height="10" as="geometry" />
        </mxCell>
        <mxCell id="i_zrRiR0qKMfP-qaaSCy-76" value="" style="verticalLabelPosition=bottom;html=1;verticalAlign=top;align=center;shape=mxgraph.floorplan.doorDouble;aspect=fixed;strokeWidth=3;" parent="1" vertex="1">
          <mxGeometry x="-4810" y="72" width="282.35" height="150" as="geometry" />
        </mxCell>
        <mxCell id="i_zrRiR0qKMfP-qaaSCy-77" value="" style="verticalLabelPosition=bottom;html=1;verticalAlign=top;align=center;shape=mxgraph.floorplan.doorDouble;aspect=fixed;strokeWidth=3;" parent="1" vertex="1">
          <mxGeometry x="-4840" y="1021" width="282.35" height="150" as="geometry" />
        </mxCell>
        <mxCell id="i_zrRiR0qKMfP-qaaSCy-78" value="" style="verticalLabelPosition=bottom;html=1;verticalAlign=top;align=center;shape=mxgraph.floorplan.doorDouble;aspect=fixed;strokeWidth=3;" parent="1" vertex="1">
          <mxGeometry x="-4810" y="1972" width="282.35" height="150" as="geometry" />
        </mxCell>
        <mxCell id="i_zrRiR0qKMfP-qaaSCy-79" value="" style="shape=orEllipse;perimeter=ellipsePerimeter;whiteSpace=wrap;html=1;backgroundOutline=1;fontColor=#000000;strokeWidth=4;" parent="1" vertex="1">
          <mxGeometry x="-5194.12" y="282" width="60" height="60" as="geometry" />
        </mxCell>
        <mxCell id="i_zrRiR0qKMfP-qaaSCy-80" value="" style="shape=orEllipse;perimeter=ellipsePerimeter;whiteSpace=wrap;html=1;backgroundOutline=1;fontColor=#000000;strokeWidth=4;" parent="1" vertex="1">
          <mxGeometry x="-5200" y="512" width="60" height="60" as="geometry" />
        </mxCell>
        <mxCell id="i_zrRiR0qKMfP-qaaSCy-81" value="" style="shape=orEllipse;perimeter=ellipsePerimeter;whiteSpace=wrap;html=1;backgroundOutline=1;fontColor=#000000;strokeWidth=4;" parent="1" vertex="1">
          <mxGeometry x="-5200" y="772" width="60" height="60" as="geometry" />
        </mxCell>
        <mxCell id="i_zrRiR0qKMfP-qaaSCy-82" value="" style="shape=orEllipse;perimeter=ellipsePerimeter;whiteSpace=wrap;html=1;backgroundOutline=1;fontColor=#000000;strokeWidth=4;" parent="1" vertex="1">
          <mxGeometry x="-5194.12" y="1202" width="60" height="60" as="geometry" />
        </mxCell>
        <mxCell id="i_zrRiR0qKMfP-qaaSCy-83" value="" style="shape=orEllipse;perimeter=ellipsePerimeter;whiteSpace=wrap;html=1;backgroundOutline=1;fontColor=#000000;strokeWidth=4;" parent="1" vertex="1">
          <mxGeometry x="-5200" y="1432" width="60" height="60" as="geometry" />
        </mxCell>
        <mxCell id="i_zrRiR0qKMfP-qaaSCy-84" value="" style="shape=orEllipse;perimeter=ellipsePerimeter;whiteSpace=wrap;html=1;backgroundOutline=1;fontColor=#000000;strokeWidth=4;" parent="1" vertex="1">
          <mxGeometry x="-5200" y="1692" width="60" height="60" as="geometry" />
        </mxCell>
        <mxCell id="i_zrRiR0qKMfP-qaaSCy-85" value="" style="shape=orEllipse;perimeter=ellipsePerimeter;whiteSpace=wrap;html=1;backgroundOutline=1;fontColor=#000000;strokeWidth=4;" parent="1" vertex="1">
          <mxGeometry x="-5194.12" y="2232.5" width="60" height="60" as="geometry" />
        </mxCell>
        <mxCell id="i_zrRiR0qKMfP-qaaSCy-86" value="" style="shape=orEllipse;perimeter=ellipsePerimeter;whiteSpace=wrap;html=1;backgroundOutline=1;fontColor=#000000;strokeWidth=4;" parent="1" vertex="1">
          <mxGeometry x="-5194.12" y="2582" width="60" height="60" as="geometry" />
        </mxCell>
        <mxCell id="i_zrRiR0qKMfP-qaaSCy-87" value="" style="shape=orEllipse;perimeter=ellipsePerimeter;whiteSpace=wrap;html=1;backgroundOutline=1;fontColor=#000000;strokeWidth=4;" parent="1" vertex="1">
          <mxGeometry x="-4254.12" y="282" width="60" height="60" as="geometry" />
        </mxCell>
        <mxCell id="i_zrRiR0qKMfP-qaaSCy-88" value="" style="shape=orEllipse;perimeter=ellipsePerimeter;whiteSpace=wrap;html=1;backgroundOutline=1;fontColor=#000000;strokeWidth=4;" parent="1" vertex="1">
          <mxGeometry x="-4260" y="512" width="60" height="60" as="geometry" />
        </mxCell>
        <mxCell id="i_zrRiR0qKMfP-qaaSCy-89" value="" style="shape=orEllipse;perimeter=ellipsePerimeter;whiteSpace=wrap;html=1;backgroundOutline=1;fontColor=#000000;strokeWidth=4;" parent="1" vertex="1">
          <mxGeometry x="-4260" y="772" width="60" height="60" as="geometry" />
        </mxCell>
        <mxCell id="i_zrRiR0qKMfP-qaaSCy-90" value="" style="shape=orEllipse;perimeter=ellipsePerimeter;whiteSpace=wrap;html=1;backgroundOutline=1;fontColor=#000000;strokeWidth=4;" parent="1" vertex="1">
          <mxGeometry x="-4260" y="1187" width="60" height="60" as="geometry" />
        </mxCell>
        <mxCell id="i_zrRiR0qKMfP-qaaSCy-91" value="" style="shape=orEllipse;perimeter=ellipsePerimeter;whiteSpace=wrap;html=1;backgroundOutline=1;fontColor=#000000;strokeWidth=4;" parent="1" vertex="1">
          <mxGeometry x="-4265.88" y="1417" width="60" height="60" as="geometry" />
        </mxCell>
        <mxCell id="i_zrRiR0qKMfP-qaaSCy-92" value="" style="shape=orEllipse;perimeter=ellipsePerimeter;whiteSpace=wrap;html=1;backgroundOutline=1;fontColor=#000000;strokeWidth=4;" parent="1" vertex="1">
          <mxGeometry x="-4265.88" y="1677" width="60" height="60" as="geometry" />
        </mxCell>
        <mxCell id="i_zrRiR0qKMfP-qaaSCy-93" value="" style="shape=orEllipse;perimeter=ellipsePerimeter;whiteSpace=wrap;html=1;backgroundOutline=1;fontColor=#000000;strokeWidth=4;" parent="1" vertex="1">
          <mxGeometry x="-4210" y="2172.5" width="60" height="60" as="geometry" />
        </mxCell>
        <mxCell id="i_zrRiR0qKMfP-qaaSCy-94" value="" style="shape=orEllipse;perimeter=ellipsePerimeter;whiteSpace=wrap;html=1;backgroundOutline=1;fontColor=#000000;strokeWidth=4;" parent="1" vertex="1">
          <mxGeometry x="-4250" y="2582" width="60" height="60" as="geometry" />
        </mxCell>
        <mxCell id="i_zrRiR0qKMfP-qaaSCy-95" value="" style="shape=orEllipse;perimeter=ellipsePerimeter;whiteSpace=wrap;html=1;backgroundOutline=1;fontColor=#000000;strokeWidth=4;" parent="1" vertex="1">
          <mxGeometry x="-4460" y="2773.5" width="60" height="60" as="geometry" />
        </mxCell>
        <mxCell id="i_zrRiR0qKMfP-qaaSCy-96" value="" style="shape=orEllipse;perimeter=ellipsePerimeter;whiteSpace=wrap;html=1;backgroundOutline=1;fontColor=#000000;strokeWidth=4;" parent="1" vertex="1">
          <mxGeometry x="-4730" y="2772.5" width="60" height="60" as="geometry" />
        </mxCell>
        <mxCell id="i_zrRiR0qKMfP-qaaSCy-97" value="" style="shape=orEllipse;perimeter=ellipsePerimeter;whiteSpace=wrap;html=1;backgroundOutline=1;fontColor=#000000;strokeWidth=4;" parent="1" vertex="1">
          <mxGeometry x="-5000" y="2772.5" width="60" height="60" as="geometry" />
        </mxCell>
        <mxCell id="i_zrRiR0qKMfP-qaaSCy-98" value="" style="shape=orEllipse;perimeter=ellipsePerimeter;whiteSpace=wrap;html=1;backgroundOutline=1;fontColor=#000000;strokeWidth=4;" parent="1" vertex="1">
          <mxGeometry x="-5018.82" y="1852" width="60" height="60" as="geometry" />
        </mxCell>
        <mxCell id="i_zrRiR0qKMfP-qaaSCy-99" value="" style="shape=orEllipse;perimeter=ellipsePerimeter;whiteSpace=wrap;html=1;backgroundOutline=1;fontColor=#000000;strokeWidth=4;" parent="1" vertex="1">
          <mxGeometry x="-4410" y="1852" width="60" height="60" as="geometry" />
        </mxCell>
        <mxCell id="i_zrRiR0qKMfP-qaaSCy-100" value="" style="shape=orEllipse;perimeter=ellipsePerimeter;whiteSpace=wrap;html=1;backgroundOutline=1;fontColor=#000000;strokeWidth=4;" parent="1" vertex="1">
          <mxGeometry x="-5018.82" y="1992" width="60" height="60" as="geometry" />
        </mxCell>
        <mxCell id="i_zrRiR0qKMfP-qaaSCy-101" value="" style="shape=orEllipse;perimeter=ellipsePerimeter;whiteSpace=wrap;html=1;backgroundOutline=1;fontColor=#000000;strokeWidth=4;" parent="1" vertex="1">
          <mxGeometry x="-4371.18" y="1983.5" width="60" height="60" as="geometry" />
        </mxCell>
        <mxCell id="i_zrRiR0qKMfP-qaaSCy-102" value="" style="shape=orEllipse;perimeter=ellipsePerimeter;whiteSpace=wrap;html=1;backgroundOutline=1;fontColor=#000000;strokeWidth=4;" parent="1" vertex="1">
          <mxGeometry x="-5040" y="912" width="60" height="60" as="geometry" />
        </mxCell>
        <mxCell id="i_zrRiR0qKMfP-qaaSCy-103" value="" style="shape=orEllipse;perimeter=ellipsePerimeter;whiteSpace=wrap;html=1;backgroundOutline=1;fontColor=#000000;strokeWidth=4;" parent="1" vertex="1">
          <mxGeometry x="-4431.18" y="912" width="60" height="60" as="geometry" />
        </mxCell>
        <mxCell id="i_zrRiR0qKMfP-qaaSCy-104" value="" style="shape=orEllipse;perimeter=ellipsePerimeter;whiteSpace=wrap;html=1;backgroundOutline=1;fontColor=#000000;strokeWidth=4;" parent="1" vertex="1">
          <mxGeometry x="-5040" y="1052" width="60" height="60" as="geometry" />
        </mxCell>
        <mxCell id="i_zrRiR0qKMfP-qaaSCy-105" value="" style="shape=orEllipse;perimeter=ellipsePerimeter;whiteSpace=wrap;html=1;backgroundOutline=1;fontColor=#000000;strokeWidth=4;" parent="1" vertex="1">
          <mxGeometry x="-4431.18" y="1052" width="60" height="60" as="geometry" />
        </mxCell>
        <mxCell id="i_zrRiR0qKMfP-qaaSCy-106" value="" style="html=1;verticalLabelPosition=bottom;labelBackgroundColor=#ffffff;verticalAlign=top;outlineConnect=0;shadow=0;dashed=0;shape=mxgraph.rackGeneral.container;fillColor2=#f4f4f4;container=1;collapsible=0;childLayout=rack;allowGaps=1;marginLeft=9;marginRight=9;marginTop=21;marginBottom=22;textColor=#666666;numDisp=off;fontSize=53;gradientDirection=north;strokeWidth=5;fontStyle=1;fillColor=#1ba1e2;strokeColor=#006EAF;fontColor=#ffffff;" parent="1" vertex="1">
          <mxGeometry x="-4830" y="1239.5" width="310" height="330" as="geometry" />
        </mxCell>
        <mxCell id="i_zrRiR0qKMfP-qaaSCy-107" value="&lt;font style=&quot;font-size: 50px;&quot;&gt;RACK&amp;nbsp; 06&lt;br style=&quot;font-size: 50px;&quot;&gt;SWITCH 06&lt;br style=&quot;font-size: 50px;&quot;&gt;&lt;/font&gt;" style="html=1;verticalLabelPosition=bottom;verticalAlign=top;outlineConnect=0;shadow=0;dashed=0;shape=mxgraph.rack.hpe_aruba.switches.j9776a_2530_24g_switch;labelBackgroundColor=#000000;labelBorderColor=default;fontSize=50;fillColor=none;gradientColor=none;opacity=90;fontColor=#FFFFFF;fontStyle=1" parent="i_zrRiR0qKMfP-qaaSCy-106" vertex="1">
          <mxGeometry x="9" y="21" width="292" height="45.75" as="geometry" />
        </mxCell>
        <mxCell id="i_zrRiR0qKMfP-qaaSCy-108" value="&lt;font style=&quot;font-size: 37px;&quot; color=&quot;#000000&quot;&gt;31 PONTOS&lt;/font&gt;" style="text;html=1;strokeColor=none;fillColor=none;align=center;verticalAlign=middle;whiteSpace=wrap;rounded=0;labelBackgroundColor=none;labelBorderColor=default;fontSize=67;fontColor=#FFFFFF;fontStyle=1" parent="i_zrRiR0qKMfP-qaaSCy-106" vertex="1">
          <mxGeometry x="9" y="162.5" width="292" height="170.5" as="geometry" />
        </mxCell>
        <mxCell id="i_zrRiR0qKMfP-qaaSCy-109" value="" style="shape=orEllipse;perimeter=ellipsePerimeter;whiteSpace=wrap;html=1;backgroundOutline=1;fontColor=#000000;strokeWidth=4;" parent="1" vertex="1">
          <mxGeometry x="-5023.24" y="76.25" width="63.24" height="46.25" as="geometry" />
        </mxCell>
        <mxCell id="i_zrRiR0qKMfP-qaaSCy-110" value="&lt;h1 style=&quot;font-size: 160px;&quot; align=&quot;center&quot;&gt;L&lt;/h1&gt;&lt;div style=&quot;text-align: center;&quot;&gt;&lt;br&gt;&lt;/div&gt;&lt;p&gt;&lt;br&gt;&lt;/p&gt;" style="text;html=1;strokeColor=none;fillColor=none;spacing=5;spacingTop=-20;whiteSpace=wrap;overflow=hidden;rounded=0;fontSize=35;" parent="1" vertex="1">
          <mxGeometry x="-4760" y="392.5" width="300" height="390" as="geometry" />
        </mxCell>
        <mxCell id="i_zrRiR0qKMfP-qaaSCy-111" value="&lt;font style=&quot;font-size: 50px;&quot;&gt;L 1.1&lt;/font&gt;" style="text;html=1;strokeColor=none;fillColor=none;align=center;verticalAlign=middle;whiteSpace=wrap;rounded=0;strokeWidth=8;fontSize=30;fontStyle=1" parent="1" vertex="1">
          <mxGeometry x="-4464.54" y="138" width="200" height="32.75" as="geometry" />
        </mxCell>
        <mxCell id="i_zrRiR0qKMfP-qaaSCy-112" style="edgeStyle=orthogonalEdgeStyle;rounded=0;orthogonalLoop=1;jettySize=auto;html=1;exitX=0.5;exitY=1;exitDx=0;exitDy=0;fontSize=30;" parent="1" source="i_zrRiR0qKMfP-qaaSCy-111" target="i_zrRiR0qKMfP-qaaSCy-111" edge="1">
          <mxGeometry relative="1" as="geometry" />
        </mxCell>
        <mxCell id="i_zrRiR0qKMfP-qaaSCy-113" value="" style="edgeStyle=orthogonalEdgeStyle;rounded=0;orthogonalLoop=1;jettySize=auto;html=1;fontSize=37;" parent="1" source="i_zrRiR0qKMfP-qaaSCy-114" target="i_zrRiR0qKMfP-qaaSCy-87" edge="1">
          <mxGeometry relative="1" as="geometry" />
        </mxCell>
        <mxCell id="i_zrRiR0qKMfP-qaaSCy-114" value="&lt;font style=&quot;font-size: 50px;&quot;&gt;L 2.1&lt;/font&gt;" style="text;html=1;strokeColor=none;fillColor=none;align=center;verticalAlign=middle;whiteSpace=wrap;rounded=0;strokeWidth=8;fontSize=30;fontStyle=1" parent="1" vertex="1">
          <mxGeometry x="-4385.88" y="292.5" width="120" height="30" as="geometry" />
        </mxCell>
        <mxCell id="i_zrRiR0qKMfP-qaaSCy-115" value="&lt;font style=&quot;font-size: 50px;&quot;&gt;L 3.1&lt;/font&gt;" style="text;html=1;strokeColor=none;fillColor=none;align=center;verticalAlign=middle;whiteSpace=wrap;rounded=0;strokeWidth=8;fontSize=30;fontStyle=1" parent="1" vertex="1">
          <mxGeometry x="-4400" y="522.5" width="120" height="30" as="geometry" />
        </mxCell>
        <mxCell id="i_zrRiR0qKMfP-qaaSCy-116" value="&lt;font style=&quot;font-size: 50px;&quot;&gt;L 4.1&lt;/font&gt;" style="text;html=1;strokeColor=none;fillColor=none;align=center;verticalAlign=middle;whiteSpace=wrap;rounded=0;strokeWidth=8;fontSize=30;fontStyle=1" parent="1" vertex="1">
          <mxGeometry x="-4385.88" y="782.5" width="120" height="30" as="geometry" />
        </mxCell>
        <mxCell id="i_zrRiR0qKMfP-qaaSCy-117" value="&lt;font style=&quot;font-size: 50px;&quot;&gt;L 5.1&lt;/font&gt;" style="text;html=1;strokeColor=none;fillColor=none;align=center;verticalAlign=middle;whiteSpace=wrap;rounded=0;strokeWidth=8;fontSize=30;fontStyle=1" parent="1" vertex="1">
          <mxGeometry x="-4557.65" y="927" width="120" height="30" as="geometry" />
        </mxCell>
        <mxCell id="i_zrRiR0qKMfP-qaaSCy-118" value="&lt;font style=&quot;font-size: 50px;&quot;&gt;L 6.1&lt;/font&gt;" style="text;html=1;strokeColor=none;fillColor=none;align=center;verticalAlign=middle;whiteSpace=wrap;rounded=0;strokeWidth=8;fontSize=30;fontStyle=1" parent="1" vertex="1">
          <mxGeometry x="-4460" y="1122.5" width="120" height="30" as="geometry" />
        </mxCell>
        <mxCell id="i_zrRiR0qKMfP-qaaSCy-119" value="&lt;font style=&quot;font-size: 50px;&quot;&gt;L 7.1&lt;/font&gt;" style="text;html=1;strokeColor=none;fillColor=none;align=center;verticalAlign=middle;whiteSpace=wrap;rounded=0;strokeWidth=8;fontSize=30;fontStyle=1" parent="1" vertex="1">
          <mxGeometry x="-4400" y="1205.5" width="120" height="30" as="geometry" />
        </mxCell>
        <mxCell id="i_zrRiR0qKMfP-qaaSCy-120" value="&lt;font style=&quot;font-size: 50px;&quot;&gt;L 29.1&lt;/font&gt;" style="text;html=1;strokeColor=none;fillColor=none;align=center;verticalAlign=middle;whiteSpace=wrap;rounded=0;strokeWidth=8;fontSize=30;fontStyle=1" parent="1" vertex="1">
          <mxGeometry x="-5066.76" y="168" width="156.76" height="30" as="geometry" />
        </mxCell>
        <mxCell id="i_zrRiR0qKMfP-qaaSCy-121" value="&lt;font style=&quot;font-size: 50px;&quot;&gt;L 28.1&lt;/font&gt;" style="text;html=1;strokeColor=none;fillColor=none;align=center;verticalAlign=middle;whiteSpace=wrap;rounded=0;strokeWidth=8;fontSize=30;fontStyle=1" parent="1" vertex="1">
          <mxGeometry x="-5100.59" y="297" width="144.12" height="30" as="geometry" />
        </mxCell>
        <mxCell id="i_zrRiR0qKMfP-qaaSCy-122" value="&lt;font style=&quot;font-size: 50px;&quot;&gt;L 27.2&lt;/font&gt;" style="text;html=1;strokeColor=none;fillColor=none;align=center;verticalAlign=middle;whiteSpace=wrap;rounded=0;strokeWidth=8;fontSize=30;fontStyle=1" parent="1" vertex="1">
          <mxGeometry x="-5138.82" y="492.5" width="218.82" height="30" as="geometry" />
        </mxCell>
        <mxCell id="i_zrRiR0qKMfP-qaaSCy-123" value="&lt;font style=&quot;font-size: 50px;&quot;&gt;L 26.1&lt;/font&gt;" style="text;html=1;strokeColor=none;fillColor=none;align=center;verticalAlign=middle;whiteSpace=wrap;rounded=0;strokeWidth=8;fontSize=30;fontStyle=1" parent="1" vertex="1">
          <mxGeometry x="-5134.12" y="787" width="154.12" height="30" as="geometry" />
        </mxCell>
        <mxCell id="i_zrRiR0qKMfP-qaaSCy-124" value="&lt;font style=&quot;font-size: 50px;&quot;&gt;L 27.1&lt;/font&gt;" style="text;html=1;strokeColor=none;fillColor=none;align=center;verticalAlign=middle;whiteSpace=wrap;rounded=0;strokeWidth=8;fontSize=30;fontStyle=1" parent="1" vertex="1">
          <mxGeometry x="-5147.06" y="522.5" width="237.06" height="88.25" as="geometry" />
        </mxCell>
        <mxCell id="i_zrRiR0qKMfP-qaaSCy-125" value="&lt;font style=&quot;font-size: 50px;&quot;&gt;L 25.1&lt;/font&gt;" style="text;html=1;strokeColor=none;fillColor=none;align=center;verticalAlign=middle;whiteSpace=wrap;rounded=0;strokeWidth=8;fontSize=30;fontStyle=1" parent="1" vertex="1">
          <mxGeometry x="-4979" y="927" width="150" height="30" as="geometry" />
        </mxCell>
        <mxCell id="i_zrRiR0qKMfP-qaaSCy-126" value="&lt;font style=&quot;font-size: 50px;&quot;&gt;L 24.1&lt;/font&gt;" style="text;html=1;strokeColor=none;fillColor=none;align=center;verticalAlign=middle;whiteSpace=wrap;rounded=0;strokeWidth=8;fontSize=30;fontStyle=1" parent="1" vertex="1">
          <mxGeometry x="-5090" y="1125.5" width="230" height="30" as="geometry" />
        </mxCell>
        <mxCell id="i_zrRiR0qKMfP-qaaSCy-127" value="&lt;font style=&quot;font-size: 50px;&quot;&gt;L 23.1&lt;/font&gt;" style="text;html=1;strokeColor=none;fillColor=none;align=center;verticalAlign=middle;whiteSpace=wrap;rounded=0;strokeWidth=8;fontSize=30;fontStyle=1" parent="1" vertex="1">
          <mxGeometry x="-5124.41" y="1217" width="234.41" height="30" as="geometry" />
        </mxCell>
        <mxCell id="i_zrRiR0qKMfP-qaaSCy-128" value="&lt;font style=&quot;font-size: 50px;&quot;&gt;L 22.2&lt;/font&gt;" style="text;html=1;strokeColor=none;fillColor=none;align=center;verticalAlign=middle;whiteSpace=wrap;rounded=0;strokeWidth=8;fontSize=30;fontStyle=1" parent="1" vertex="1">
          <mxGeometry x="-5136.47" y="1429.5" width="216.47" height="30" as="geometry" />
        </mxCell>
        <mxCell id="i_zrRiR0qKMfP-qaaSCy-129" value="&lt;font style=&quot;font-size: 50px;&quot;&gt;L 22.1&lt;/font&gt;" style="text;html=1;strokeColor=none;fillColor=none;align=center;verticalAlign=middle;whiteSpace=wrap;rounded=0;strokeWidth=8;fontSize=30;fontStyle=1" parent="1" vertex="1">
          <mxGeometry x="-5134.12" y="1522" width="200" height="30" as="geometry" />
        </mxCell>
        <mxCell id="i_zrRiR0qKMfP-qaaSCy-130" value="&lt;font style=&quot;font-size: 50px;&quot;&gt;L 21.1&lt;/font&gt;" style="text;html=1;strokeColor=none;fillColor=none;align=center;verticalAlign=middle;whiteSpace=wrap;rounded=0;strokeWidth=8;fontSize=30;fontStyle=1" parent="1" vertex="1">
          <mxGeometry x="-5134.12" y="1707" width="154.12" height="30" as="geometry" />
        </mxCell>
        <mxCell id="i_zrRiR0qKMfP-qaaSCy-131" value="&lt;font style=&quot;font-size: 50px;&quot;&gt;L 20.1&lt;/font&gt;" style="text;html=1;strokeColor=none;fillColor=none;align=center;verticalAlign=middle;whiteSpace=wrap;rounded=0;strokeWidth=8;fontSize=30;fontStyle=1" parent="1" vertex="1">
          <mxGeometry x="-4958.82" y="1867" width="148.82" height="30" as="geometry" />
        </mxCell>
        <mxCell id="i_zrRiR0qKMfP-qaaSCy-132" value="&lt;font style=&quot;font-size: 50px;&quot;&gt;L 8.1&lt;/font&gt;" style="text;html=1;strokeColor=none;fillColor=none;align=center;verticalAlign=middle;whiteSpace=wrap;rounded=0;strokeWidth=8;fontSize=30;fontStyle=1" parent="1" vertex="1">
          <mxGeometry x="-4396.04" y="1429.5" width="120" height="30" as="geometry" />
        </mxCell>
        <mxCell id="i_zrRiR0qKMfP-qaaSCy-133" value="&lt;font style=&quot;font-size: 50px;&quot;&gt;L 9.1&lt;/font&gt;" style="text;html=1;strokeColor=none;fillColor=none;align=center;verticalAlign=middle;whiteSpace=wrap;rounded=0;strokeWidth=8;fontSize=30;fontStyle=1" parent="1" vertex="1">
          <mxGeometry x="-4385.88" y="1692" width="120" height="30" as="geometry" />
        </mxCell>
        <mxCell id="i_zrRiR0qKMfP-qaaSCy-134" value="&lt;font style=&quot;font-size: 50px;&quot;&gt;L 10.1&lt;/font&gt;" style="text;html=1;strokeColor=none;fillColor=none;align=center;verticalAlign=middle;whiteSpace=wrap;rounded=0;strokeWidth=8;fontSize=30;fontStyle=1" parent="1" vertex="1">
          <mxGeometry x="-4570" y="1867" width="160" height="30" as="geometry" />
        </mxCell>
        <mxCell id="i_zrRiR0qKMfP-qaaSCy-135" value="&lt;font style=&quot;font-size: 50px;&quot;&gt;L 11.1&lt;/font&gt;" style="text;html=1;strokeColor=none;fillColor=none;align=center;verticalAlign=middle;whiteSpace=wrap;rounded=0;strokeWidth=8;fontSize=30;fontStyle=1" parent="1" vertex="1">
          <mxGeometry x="-4414.06" y="2052" width="156.04" height="30" as="geometry" />
        </mxCell>
        <mxCell id="i_zrRiR0qKMfP-qaaSCy-136" value="&lt;font style=&quot;font-size: 50px;&quot;&gt;L 12.1&lt;/font&gt;" style="text;html=1;strokeColor=none;fillColor=none;align=center;verticalAlign=middle;whiteSpace=wrap;rounded=0;strokeWidth=8;fontSize=30;fontStyle=1" parent="1" vertex="1">
          <mxGeometry x="-4370" y="2187.5" width="150" height="30" as="geometry" />
        </mxCell>
        <mxCell id="i_zrRiR0qKMfP-qaaSCy-137" value="&lt;font style=&quot;font-size: 50px;&quot;&gt;L 13.1&lt;/font&gt;" style="text;html=1;strokeColor=none;fillColor=none;align=center;verticalAlign=middle;whiteSpace=wrap;rounded=0;strokeWidth=8;fontSize=30;fontStyle=1" parent="1" vertex="1">
          <mxGeometry x="-4410" y="2597" width="155.88" height="30" as="geometry" />
        </mxCell>
        <mxCell id="i_zrRiR0qKMfP-qaaSCy-138" value="&lt;font style=&quot;font-size: 50px;&quot;&gt;L 14.1&lt;/font&gt;" style="text;html=1;strokeColor=none;fillColor=none;align=center;verticalAlign=middle;whiteSpace=wrap;rounded=0;strokeWidth=8;fontSize=30;fontStyle=1" parent="1" vertex="1">
          <mxGeometry x="-4510" y="2723" width="160" height="30" as="geometry" />
        </mxCell>
        <mxCell id="i_zrRiR0qKMfP-qaaSCy-139" value="&lt;font style=&quot;font-size: 50px;&quot;&gt;L 15.1&lt;/font&gt;" style="text;html=1;strokeColor=none;fillColor=none;align=center;verticalAlign=middle;whiteSpace=wrap;rounded=0;strokeWidth=8;fontSize=30;fontStyle=1" parent="1" vertex="1">
          <mxGeometry x="-4779.41" y="2723" width="161.18" height="30" as="geometry" />
        </mxCell>
        <mxCell id="i_zrRiR0qKMfP-qaaSCy-140" value="&lt;font style=&quot;font-size: 50px;&quot;&gt;L 16.1&lt;/font&gt;" style="text;html=1;strokeColor=none;fillColor=none;align=center;verticalAlign=middle;whiteSpace=wrap;rounded=0;strokeWidth=8;fontSize=30;fontStyle=1" parent="1" vertex="1">
          <mxGeometry x="-5048.82" y="2723" width="160" height="30" as="geometry" />
        </mxCell>
        <mxCell id="i_zrRiR0qKMfP-qaaSCy-141" value="&lt;font style=&quot;font-size: 50px;&quot;&gt;L 17.1&lt;/font&gt;" style="text;html=1;strokeColor=none;fillColor=none;align=center;verticalAlign=middle;whiteSpace=wrap;rounded=0;strokeWidth=8;fontSize=30;fontStyle=1" parent="1" vertex="1">
          <mxGeometry x="-5120" y="2597" width="160" height="30" as="geometry" />
        </mxCell>
        <mxCell id="i_zrRiR0qKMfP-qaaSCy-142" value="&lt;font style=&quot;font-size: 50px;&quot;&gt;L 18.1&lt;/font&gt;" style="text;html=1;strokeColor=none;fillColor=none;align=center;verticalAlign=middle;whiteSpace=wrap;rounded=0;strokeWidth=8;fontSize=30;fontStyle=1" parent="1" vertex="1">
          <mxGeometry x="-5131.06" y="2247.5" width="152.06" height="30" as="geometry" />
        </mxCell>
        <mxCell id="i_zrRiR0qKMfP-qaaSCy-143" value="&lt;font style=&quot;font-size: 50px;&quot;&gt;L 19.1&lt;/font&gt;" style="text;html=1;strokeColor=none;fillColor=none;align=center;verticalAlign=middle;whiteSpace=wrap;rounded=0;strokeWidth=8;fontSize=30;fontStyle=1" parent="1" vertex="1">
          <mxGeometry x="-5071.03" y="2093" width="158.82" height="30" as="geometry" />
        </mxCell>
        <mxCell id="i_zrRiR0qKMfP-qaaSCy-144" value="" style="shape=orEllipse;perimeter=ellipsePerimeter;whiteSpace=wrap;html=1;backgroundOutline=1;fontColor=#000000;strokeWidth=4;" parent="1" vertex="1">
          <mxGeometry x="-4396.039999999999" y="76.25" width="63" height="45" as="geometry" />
        </mxCell>
      </root>
    </mxGraphModel>
  </diagram>
</mxfile>
